<svg width="242" height="53" viewBox="0 0 242 53" fill="none" xmlns="http://www.w3.org/2000/svg">
<g filter="url(#filter0_d)">
<path d="M62.7441 35.9414V17.6074H59.9668V14.5488H69.3184V17.6074H66.4355V24.6035H77.0703V17.6074H74.2051V14.5488H83.5566V17.6074H80.7617V35.9414H83.5566V39H74.2051V35.9414H77.0703V27.6621H66.4355V35.9414H69.3184V39H59.9668V35.9414H62.7441ZM85.8594 30.4922C85.8594 27.8672 86.7266 25.7168 88.4609 24.041C90.1953 22.3535 92.3105 21.5098 94.8066 21.5098C97.2559 21.5098 99.3594 22.3418 101.117 24.0059C102.875 25.6582 103.754 27.8203 103.754 30.4922C103.754 33.1641 102.875 35.332 101.117 36.9961C99.3711 38.6602 97.2676 39.4922 94.8066 39.4922C92.2754 39.4922 90.1484 38.6484 88.4258 36.9609C86.7148 35.2734 85.8594 33.1172 85.8594 30.4922ZM89.3926 30.4922C89.3926 32.168 89.9141 33.5449 90.957 34.623C92.0117 35.6895 93.2949 36.2227 94.8066 36.2227C96.3418 36.2227 97.625 35.6836 98.6562 34.6055C99.6992 33.5156 100.221 32.1445 100.221 30.4922C100.221 28.8281 99.6934 27.457 98.6387 26.3789C97.584 25.3008 96.3066 24.7617 94.8066 24.7617C93.2363 24.7617 91.9414 25.3125 90.9219 26.4141C89.9023 27.5156 89.3926 28.875 89.3926 30.4922ZM109.115 36.0293V24.9551H106.285V21.9844H112.455V24.1289C114.471 22.5234 116.445 21.7207 118.379 21.7207C120.324 21.7207 121.666 22.6055 122.404 24.375C124.619 22.6055 126.682 21.7207 128.592 21.7207C129.693 21.7207 130.596 21.9668 131.299 22.459C132.014 22.9395 132.494 23.5547 132.74 24.3047C132.986 25.043 133.109 26.1387 133.109 27.5918V36.0293H136.08V39H129.77V28.1895C129.77 27.2051 129.723 26.5137 129.629 26.1152C129.547 25.7051 129.324 25.3711 128.961 25.1133C128.609 24.8438 128.182 24.709 127.678 24.709C126.248 24.709 124.625 25.4414 122.809 26.9062V36.0293H125.727V39H119.469V27.873C119.469 26.7598 119.305 25.957 118.977 25.4648C118.66 24.9609 118.115 24.709 117.342 24.709C116.076 24.709 114.447 25.4414 112.455 26.9062V36.0293H115.443V39H106.074V36.0293H109.115ZM155.574 31.3359H141.266C141.477 32.9062 142.098 34.1777 143.129 35.1504C144.16 36.123 145.479 36.6094 147.084 36.6094C149.416 36.6094 151.262 35.6719 152.621 33.7969L155.574 35.0977C154.613 36.5859 153.365 37.6934 151.83 38.4199C150.295 39.1348 148.689 39.4922 147.014 39.4922C144.412 39.4922 142.186 38.6836 140.334 37.0664C138.494 35.4375 137.574 33.2461 137.574 30.4922C137.574 27.8789 138.471 25.7285 140.264 24.041C142.068 22.3535 144.137 21.5098 146.469 21.5098C148.754 21.5098 150.822 22.3359 152.674 23.9883C154.537 25.6289 155.504 28.0781 155.574 31.3359ZM152.129 28.9102C151.895 27.7148 151.273 26.6367 150.266 25.6758C149.258 24.7031 148.021 24.2168 146.557 24.2168C145.221 24.2168 144.078 24.6562 143.129 25.5352C142.18 26.4023 141.6 27.5273 141.389 28.9102H152.129ZM168.072 39.2461L159.863 17.6074H156.84V14.5488H166.49V17.6074H163.66L169.883 34.0254L175.947 17.6074H173.1V14.5488H182.486V17.6074H179.516L171.465 39.2461H168.072ZM197.076 36.0293V39H191.24V36.9258C189.623 38.4961 187.818 39.2812 185.826 39.2812C184.279 39.2812 182.932 38.7773 181.783 37.7695C180.646 36.7617 180.078 35.4727 180.078 33.9023C180.078 32.3203 180.682 31.0078 181.889 29.9648C183.107 28.9219 184.572 28.4004 186.283 28.4004C187.877 28.4004 189.418 28.8809 190.906 29.8418V28.1543C190.906 27.2871 190.824 26.6191 190.66 26.1504C190.496 25.6816 190.109 25.2598 189.5 24.8848C188.902 24.5098 188.117 24.3223 187.145 24.3223C185.469 24.3223 184.256 24.9902 183.506 26.3262L180.307 25.4824C181.725 22.834 184.174 21.5098 187.654 21.5098C188.932 21.5098 190.033 21.6855 190.959 22.0371C191.896 22.377 192.594 22.8223 193.051 23.373C193.508 23.9121 193.812 24.498 193.965 25.1309C194.129 25.7637 194.211 26.7715 194.211 28.1543V36.0293H197.076ZM190.906 32.6719C189.465 31.5469 188.006 30.9844 186.529 30.9844C185.604 30.9844 184.83 31.2539 184.209 31.793C183.588 32.332 183.277 33.0293 183.277 33.8848C183.277 34.6816 183.547 35.3496 184.086 35.8887C184.637 36.4277 185.381 36.6973 186.318 36.6973C187.936 36.6973 189.465 36.0176 190.906 34.6582V32.6719ZM217.467 36.0293V39H211.191V37.0488C209.234 38.5371 207.359 39.2812 205.566 39.2812C204.43 39.2812 203.486 39.0352 202.736 38.543C201.998 38.0391 201.506 37.3945 201.26 36.6094C201.014 35.8125 200.891 34.5352 200.891 32.7773V24.9551H198.482V21.9844H204.23V32.3555C204.23 33.6094 204.266 34.4531 204.336 34.8867C204.406 35.3203 204.611 35.6777 204.951 35.959C205.291 36.2402 205.719 36.3809 206.234 36.3809C207.781 36.3809 209.434 35.6426 211.191 34.166V24.9551H208.186V21.9844H214.531V36.0293H217.467ZM221.58 36.0293V17.5195H218.557V14.5488H224.92V36.0293H227.521V39H218.557V36.0293H221.58ZM229.438 24.9551V21.9844H231.652V19.3652L234.992 16.3066V21.9844H238.139V24.9551H234.992V33.2168C234.992 34.541 235.062 35.3613 235.203 35.6777C235.355 35.9824 235.725 36.1348 236.311 36.1348C236.932 36.1348 237.541 36.0176 238.139 35.7832V38.8242C237.283 39.1289 236.428 39.2812 235.572 39.2812C234.553 39.2812 233.727 39.0586 233.094 38.6133C232.461 38.1562 232.062 37.5879 231.898 36.9082C231.734 36.2285 231.652 35.0566 231.652 33.3926V24.9551H229.438Z" fill="#17A67E"/>
</g>
<g filter="url(#filter1_d)">
<circle cx="26.5" cy="26.5" r="21.2" stroke="#17A67E" stroke-opacity="0.97" stroke-width="4.6"/>
<circle r="5.2" transform="matrix(1 0 0 -1 26.5 26.5)" stroke="#17A67E" stroke-opacity="0.97" stroke-width="4.6"/>
<line x1="5" y1="26.2" x2="23" y2="26.2" stroke="#17A67E" stroke-width="3.6"/>
<line x1="26.2" y1="48" x2="26.2" y2="30" stroke="#17A67E" stroke-width="3.6"/>
</g>
<defs>
<filter id="filter0_d" x="56.9668" y="11.5488" width="184.172" height="30.9434" filterUnits="userSpaceOnUse" color-interpolation-filters="sRGB">
<feFlood flood-opacity="0" result="BackgroundImageFix"/>
<feColorMatrix in="SourceAlpha" type="matrix" values="0 0 0 0 0 0 0 0 0 0 0 0 0 0 0 0 0 0 127 0"/>
<feOffset/>
<feGaussianBlur stdDeviation="1.5"/>
<feColorMatrix type="matrix" values="0 0 0 0 0.361528 0 0 0 0 0.633333 0 0 0 0 0.557304 0 0 0 0.26 0"/>
<feBlend mode="normal" in2="BackgroundImageFix" result="effect1_dropShadow"/>
<feBlend mode="normal" in="SourceGraphic" in2="effect1_dropShadow" result="shape"/>
</filter>
<filter id="filter1_d" x="0" y="0" width="53" height="53" filterUnits="userSpaceOnUse" color-interpolation-filters="sRGB">
<feFlood flood-opacity="0" result="BackgroundImageFix"/>
<feColorMatrix in="SourceAlpha" type="matrix" values="0 0 0 0 0 0 0 0 0 0 0 0 0 0 0 0 0 0 127 0"/>
<feOffset/>
<feGaussianBlur stdDeviation="1.5"/>
<feColorMatrix type="matrix" values="0 0 0 0 0.360784 0 0 0 0 0.631373 0 0 0 0 0.556863 0 0 0 0.26 0"/>
<feBlend mode="normal" in2="BackgroundImageFix" result="effect1_dropShadow"/>
<feBlend mode="normal" in="SourceGraphic" in2="effect1_dropShadow" result="shape"/>
</filter>
</defs>
</svg>
