<svg width="360" height="38" viewBox="0 0 360 38" fill="none" xmlns="http://www.w3.org/2000/svg">
<rect width="360" height="38" rx="10" fill="white" fill-opacity="0.7"/>
<rect x="0.5" y="0.5" width="359" height="37" rx="9.5" stroke="#999898" stroke-opacity="0.79"/>
<path d="M23.4875 17.5C22.8725 15.7525 21.2075 14.5 19.25 14.5C16.7675 14.5 14.75 16.5175 14.75 19C14.75 21.4825 16.7675 23.5 19.25 23.5C21.2075 23.5 22.8725 22.2475 23.4875 20.5H26.75V23.5H29.75V20.5H31.25V17.5H23.4875ZM19.25 20.5C18.425 20.5 17.75 19.825 17.75 19C17.75 18.175 18.425 17.5 19.25 17.5C20.075 17.5 20.75 18.175 20.75 19C20.75 19.825 20.075 20.5 19.25 20.5Z" fill="#999898"/>
</svg>
